<?xml version="1.0" encoding="utf-8"?>
<!-- Generator: Adobe Illustrator 15.0.0, SVG Export Plug-In . SVG Version: 6.00 Build 0)  -->
<!DOCTYPE svg PUBLIC "-//W3C//DTD SVG 1.1//EN" "http://www.w3.org/Graphics/SVG/1.1/DTD/svg11.dtd">
<svg version="1.1" id="图层_1" xmlns="http://www.w3.org/2000/svg" xmlns:xlink="http://www.w3.org/1999/xlink" x="0px" y="0px"
	 width="28px" height="28px" viewBox="0 0 28 28" enable-background="new 0 0 28 28" xml:space="preserve">
<g id="图层_2">
	<g opacity="0.3">
		<path d="M25.999,22.465c0,2.367-1.918,4.285-4.284,4.285H6.287c-2.366,0-4.286-1.918-4.286-4.285V7.036
			c0-2.367,1.92-4.286,4.286-4.286h15.428c2.366,0,4.284,1.918,4.284,4.286V22.465z"/>
		<path d="M25.999,21.965c0,2.367-1.918,4.285-4.284,4.285H6.287c-2.366,0-4.286-1.918-4.286-4.285V6.536
			c0-2.367,1.92-4.286,4.286-4.286h15.428c2.366,0,4.284,1.918,4.284,4.286V21.965z"/>
		<path d="M21.715,26.75H6.287c-2.64,0-4.786-2.146-4.786-4.785V6.536c0-2.639,2.146-4.786,4.786-4.786h15.428
			c2.639,0,4.784,2.147,4.784,4.786v15.429C26.499,24.604,24.354,26.75,21.715,26.75z M6.287,2.75c-2.088,0-3.786,1.698-3.786,3.786
			v15.429c0,2.087,1.698,3.785,3.786,3.785h15.428c2.088,0,3.784-1.698,3.784-3.785V6.536c0-2.087-1.696-3.786-3.784-3.786H6.287z"
			/>
	</g>
	<g>
		<g>
			<g>
				<g opacity="0.3">
					<path d="M25.999,21.965c0,2.367-1.918,4.285-4.284,4.285H6.287c-2.366,0-4.286-1.918-4.286-4.285V6.536
						c0-2.367,1.92-4.286,4.286-4.286h15.428c2.366,0,4.284,1.918,4.284,4.286V21.965z"/>
				</g>
				<g>
					
						<linearGradient id="SVGID_1_" gradientUnits="userSpaceOnUse" x1="-11093.0986" y1="-1859.3511" x2="-11093.0195" y2="-1883.3474" gradientTransform="matrix(1 0 0 -1 11107.0586 -1857.7559)">
						<stop  offset="0" style="stop-color:#F7F7F7"/>
						<stop  offset="1" style="stop-color:#E6E6E6"/>
					</linearGradient>
					<path fill="url(#SVGID_1_)" d="M25.999,21.465c0,2.367-1.918,4.285-4.284,4.285H6.287c-2.366,0-4.286-1.918-4.286-4.285V6.036
						c0-2.367,1.92-4.286,4.286-4.286h15.428c2.366,0,4.284,1.918,4.284,4.286V21.465z"/>
					<g>
						
							<linearGradient id="SVGID_2_" gradientUnits="userSpaceOnUse" x1="-11093.0586" y1="-1859.3154" x2="-11093.0586" y2="-1884.1929" gradientTransform="matrix(1 0 0 -1 11107.0586 -1857.7559)">
							<stop  offset="0" style="stop-color:#BFBFBF"/>
							<stop  offset="1" style="stop-color:#808080"/>
						</linearGradient>
						<path fill="url(#SVGID_2_)" d="M21.715,26.25H6.287c-2.64,0-4.786-2.146-4.786-4.785V6.036c0-2.639,2.146-4.786,4.786-4.786
							h15.428c2.639,0,4.784,2.147,4.784,4.786v15.429C26.499,24.104,24.354,26.25,21.715,26.25z M6.287,2.25
							c-2.088,0-3.786,1.698-3.786,3.786v15.429c0,2.087,1.698,3.785,3.786,3.785h15.428c2.088,0,3.784-1.698,3.784-3.785V6.036
							c0-2.087-1.696-3.786-3.784-3.786H6.287z"/>
					</g>
				</g>
			</g>
		</g>
	</g>
</g>
<path fill="#1E1E1E" d="M19.941,17.112c0.535,0.532,0.604,1.392,0.086,1.907c-0.521,0.52-1.371,0.451-1.908-0.082l-3.737-3.746
	l-3.737,3.746c-0.534,0.532-1.39,0.601-1.908,0.082c-0.518-0.517-0.45-1.373,0.084-1.907l3.743-3.736L8.82,9.639
	C8.286,9.104,8.218,8.249,8.736,7.73c0.518-0.518,1.372-0.45,1.908,0.085l3.737,3.741l3.737-3.741
	c0.532-0.535,1.389-0.603,1.909-0.085c0.517,0.519,0.449,1.373-0.086,1.909l-3.74,3.737L19.941,17.112z"/>
</svg>
